<svg xmlns="http://www.w3.org/2000/svg" viewBox="0 0 128 128">
  <!-- Background circle -->
  <circle cx="64" cy="64" r="60" fill="#0A66C2" />
  <circle cx="64" cy="64" r="52" fill="#FFFFFF" />
  
  <!-- LinkedIn Logo (stylized) -->
  <path d="M46 40H36c-1.1 0-2 0.9-2 2v48c0 1.1 0.9 2 2 2h10c1.1 0 2-0.9 2-2V42c0-1.1-0.9-2-2-2z" fill="#0A66C2"/>
  <path d="M94 58c0-10-6-18-16-18-5.39 0-10.39 2-14 6v-4c0-1.1-0.9-2-2-2H52c-1.1 0-2 0.9-2 2v48c0 1.1 0.9 2 2 2h10c1.1 0 2-0.9 2-2V67c0-5.33 3-8 7-8s7 2.67 7 8v23c0 1.1 0.9 2 2 2h10c1.1 0 2-0.9 2-2V58z" fill="#0A66C2"/>
  <circle cx="41" cy="32" r="6" fill="#0A66C2"/>
  
  <!-- Newspaper Icon -->
  <rect x="32" y="52" width="64" height="44" rx="2" ry="2" fill="#f5f5f5" stroke="#333" stroke-width="2"/>
  <line x1="40" y1="60" x2="88" y2="60" stroke="#333" stroke-width="2"/>
  <line x1="40" y1="68" x2="88" y2="68" stroke="#333" stroke-width="2"/>
  <line x1="40" y1="76" x2="70" y2="76" stroke="#333" stroke-width="2"/>
  <line x1="40" y1="84" x2="70" y2="84" stroke="#333" stroke-width="2"/>
  <rect x="76" y="74" width="12" height="12" fill="#333"/>
  
  <!-- Red prohibition symbol -->
  <circle cx="64" cy="64" r="35" fill="none" stroke="#FF0000" stroke-width="5"/>
  <line x1="39" y1="39" x2="89" y2="89" stroke="#FF0000" stroke-width="5"/>
</svg>